<svg xmlns="http://www.w3.org/2000/svg" version="1.1" xmlns:xlink="http://www.w3.org/1999/xlink" xmlns:svgjs="http://svgjs.dev/svgjs" width="1440" height="720" preserveAspectRatio="none" viewBox="0 0 1440 720"><g mask="url(&quot;#SvgjsMask5867&quot;)" fill="none"><rect width="1440" height="720" x="0" y="0" fill="url(&quot;#SvgjsLinearGradient5868&quot;)"></rect><use xlink:href="#SvgjsG5877" transform="translate(0, 0)" fill="rgba(118, 129, 136, 1)"></use><use xlink:href="#SvgjsG5877" transform="translate(0, 405)" fill="rgba(118, 129, 136, 1)"></use><use xlink:href="#SvgjsG5877" transform="translate(405, 0)" fill="rgba(118, 129, 136, 1)"></use><use xlink:href="#SvgjsG5877" transform="translate(405, 405)" fill="rgba(118, 129, 136, 1)"></use><use xlink:href="#SvgjsG5877" transform="translate(810, 0)" fill="rgba(118, 129, 136, 1)"></use><use xlink:href="#SvgjsG5877" transform="translate(810, 405)" fill="rgba(118, 129, 136, 1)"></use><use xlink:href="#SvgjsG5877" transform="translate(1215, 0)" fill="rgba(118, 129, 136, 1)"></use><use xlink:href="#SvgjsG5877" transform="translate(1215, 405)" fill="rgba(118, 129, 136, 1)"></use></g><defs><mask id="SvgjsMask5867"><rect width="1440" height="720" fill="#ffffff"></rect></mask><linearGradient x1="87.5%" y1="-25%" x2="12.5%" y2="125%" gradientUnits="userSpaceOnUse" id="SvgjsLinearGradient5868"><stop stop-color="rgba(19, 67, 117, 1)" offset="0.13"></stop><stop stop-color="rgba(0, 0, 0, 1)" offset="0.91"></stop></linearGradient><g id="SvgjsG5869"><path d="M8 1.076C3.594 1.076 0.023 3.767 0.023 7.088c0 1.625 0.857 3.099 2.248 4.181l0.003 3.607 4.168-1.892c0.504 0.075 1.025 0.115 1.558 0.116 4.406 0 7.976-2.692 7.976-6.012C15.976 3.767 12.406 1.076 8 1.076z" fill-rule="evenodd"></path></g><g id="SvgjsG5872"><path d="M1.316 13.81h14.019V3.175H1.316v10.635z m12.302-9.643L9.143 8.635c-0.457 0.459-1.269 0.448-1.735-0.018l-4.444-4.45h10.648z m-11.31 0.693l3.626 3.638-3.637 3.644 0.007-7.278z m0.654 7.97l3.641-3.635 0.156 0.149c0.86 0.818 2.228 0.818 3.049 0l0.156-0.156 3.663 3.644h-10.667z m11.353-0.693L10.677 8.501 14.311 4.862V12.142z" fill-rule="evenodd"></path></g><g id="SvgjsG5874"><path d="M15.819 2.872L8 9.063 0.182 2.872z m0 8.863L11.116 8l4.703-3.734zM0.161 4.266l4.702 3.734L0.161 11.735z"></path><path d="M10.255 8.663L8.011 10.434 5.766 8.663 0.182 13.068h15.656z"></path></g><g id="SvgjsG5873"><path d="M8 2.022C3.815 2.022 0.422 4.579 0.422 7.733c0 1.544 0.814 2.944 2.135 3.972l0.003 3.427 3.961-1.798c0.479 0.071 0.973 0.11 1.48 0.11 4.185 0 7.578-2.557 7.578-5.711 0-3.154-3.392-5.711-7.577-5.711zM4.81 8.933a1.067 1.067 0 1 1 0-2.133 1.067 1.067 0 0 1 0 2.133z m3.186 0a1.067 1.067 0 1 1 0-2.133 1.067 1.067 0 0 1 0 2.133z m3.143 0c-0.589 0-1.067-0.478-1.067-1.066s0.477-1.067 1.067-1.067 1.067 0.478 1.067 1.067a1.067 1.067 0 0 1-1.067 1.066z"></path></g><g id="SvgjsG5871"><path d="M3.755 2.315h2.494v11.128h-2.494zM13.507 0.537H16v11.261h-2.493z"></path><path d="M4.451 5.556l-0.696-3.24L16 0v3.167z"></path><path d="M0 13.443a3.124 2.606 0 1 0 6.249 0 3.124 2.606 0 1 0-6.249 0"></path><path d="M9.751 11.798a3.124 2.606 0 1 0 6.249 0 3.124 2.606 0 1 0-6.249 0"></path></g><g id="SvgjsG5875"><path d="M3.5 4.5h3.938v7H3.5V4.5z" fill-rule="evenodd"></path><path d="M11.322 15.907L6.508 11.5v-6.889L11.322 0.094 12.426 8 11.322 15.907z" fill-rule="evenodd"></path><path d="M11.322 0.094S12.425 4.064 12.425 8s-1.104 7.906-1.104 7.906L11.322 0.094z" fill-rule="evenodd"></path></g><g id="SvgjsG5870"><path d="M11.675 13.031H3.563V2.436h8.112v10.595z m-4.054 1.54a0.457 0.457 0 1 1 0-0.912 0.457 0.457 0 0 1 0 0.912zM6.921 1.287h1.395c0.196 0 0.196 0.356 0 0.356h-1.397c-0.199 0-0.199-0.356 0-0.356zM11.495 0.409H3.744C3.413 0.409 3.143 0.761 3.143 1.191V14.276c0 0.427 0.267 0.779 0.601 0.778h7.751c0.332 0 0.604-0.35 0.605-0.778V1.191c0-0.432-0.272-0.782-0.605-0.782z" fill-rule="evenodd"></path></g><g id="SvgjsG5876"><path d="M15.769 13.134v-0.004s-3.022-3.019-3.024-3.02a0.605 0.605 0 0 0-0.858 0.002L10.496 11.509c-0.541 0.541-1.238 0.061-2.577-1.031-0.886-0.722-1.905-1.693-2.788-2.788-0.62-0.768-1.168-1.575-0.602-2.141 0.001-0.001 1.397-1.393 1.398-1.395l0.001-0.003c0.251-0.25 0.226-0.634-0.003-0.862v-0.004L2.813 0.177c-0.24-0.239-0.623-0.234-0.858 0.002L0.553 1.58C-0.024 2.303-1.307 5.747 4.194 11.385c5.795 5.94 9.534 4.669 10.177 3.999 0 0 1.4-1.383 1.4-1.384l0.001-0.003c0.251-0.251 0.225-0.635-0.002-0.864z"></path></g><g id="SvgjsG5877"><use xlink:href="#SvgjsG5869" transform="translate(0, 0) scale(1.5)" fill="rgba(118, 129, 136, 1)"></use><use xlink:href="#SvgjsG5870" transform="translate(0, 40.5) scale(1.5)" fill="rgba(118, 129, 136, 1)"></use><use xlink:href="#SvgjsG5871" transform="translate(0, 81) scale(1.5)" fill="rgba(118, 129, 136, 1)"></use><use xlink:href="#SvgjsG5870" transform="translate(0, 121.5) scale(1.5)" fill="rgba(118, 129, 136, 1)"></use><use xlink:href="#SvgjsG5872" transform="translate(0, 162) scale(1.5)" fill="rgba(118, 129, 136, 1)"></use><use xlink:href="#SvgjsG5869" transform="translate(0, 202.5) scale(1.5)" fill="rgba(118, 129, 136, 1)"></use><use xlink:href="#SvgjsG5873" transform="translate(0, 243) scale(1.5)" fill="rgba(118, 129, 136, 1)"></use><use xlink:href="#SvgjsG5873" transform="translate(0, 283.5) scale(1.5)" fill="rgba(118, 129, 136, 1)"></use><use xlink:href="#SvgjsG5869" transform="translate(0, 324) scale(1.5)" fill="rgba(118, 129, 136, 1)"></use><use xlink:href="#SvgjsG5870" transform="translate(0, 364.5) scale(1.5)" fill="rgba(118, 129, 136, 1)"></use><use xlink:href="#SvgjsG5872" transform="translate(40.5, 0) scale(1.5)" fill="rgba(118, 129, 136, 1)"></use><use xlink:href="#SvgjsG5869" transform="translate(40.5, 40.5) scale(1.5)" fill="rgba(118, 129, 136, 1)"></use><use xlink:href="#SvgjsG5869" transform="translate(40.5, 81) scale(1.5)" fill="rgba(118, 129, 136, 1)"></use><use xlink:href="#SvgjsG5873" transform="translate(40.5, 121.5) scale(1.5)" fill="rgba(118, 129, 136, 1)"></use><use xlink:href="#SvgjsG5872" transform="translate(40.5, 162) scale(1.5)" fill="rgba(118, 129, 136, 1)"></use><use xlink:href="#SvgjsG5874" transform="translate(40.5, 202.5) scale(1.5)" fill="rgba(118, 129, 136, 1)"></use><use xlink:href="#SvgjsG5872" transform="translate(40.5, 243) scale(1.5)" fill="rgba(118, 129, 136, 1)"></use><use xlink:href="#SvgjsG5875" transform="translate(40.5, 283.5) scale(1.5)" fill="rgba(118, 129, 136, 1)"></use><use xlink:href="#SvgjsG5873" transform="translate(40.5, 324) scale(1.5)" fill="rgba(118, 129, 136, 1)"></use><use xlink:href="#SvgjsG5872" transform="translate(40.5, 364.5) scale(1.5)" fill="rgba(118, 129, 136, 1)"></use><use xlink:href="#SvgjsG5869" transform="translate(81, 0) scale(1.5)" fill="rgba(118, 129, 136, 1)"></use><use xlink:href="#SvgjsG5869" transform="translate(81, 40.5) scale(1.5)" fill="rgba(118, 129, 136, 1)"></use><use xlink:href="#SvgjsG5875" transform="translate(81, 81) scale(1.5)" fill="rgba(118, 129, 136, 1)"></use><use xlink:href="#SvgjsG5875" transform="translate(81, 121.5) scale(1.5)" fill="rgba(118, 129, 136, 1)"></use><use xlink:href="#SvgjsG5876" transform="translate(81, 162) scale(1.5)" fill="rgba(118, 129, 136, 1)"></use><use xlink:href="#SvgjsG5870" transform="translate(81, 202.5) scale(1.5)" fill="rgba(118, 129, 136, 1)"></use><use xlink:href="#SvgjsG5874" transform="translate(81, 243) scale(1.5)" fill="rgba(118, 129, 136, 1)"></use><use xlink:href="#SvgjsG5874" transform="translate(81, 283.5) scale(1.5)" fill="rgba(118, 129, 136, 1)"></use><use xlink:href="#SvgjsG5876" transform="translate(81, 324) scale(1.5)" fill="rgba(118, 129, 136, 1)"></use><use xlink:href="#SvgjsG5876" transform="translate(81, 364.5) scale(1.5)" fill="rgba(118, 129, 136, 1)"></use><use xlink:href="#SvgjsG5876" transform="translate(121.5, 0) scale(1.5)" fill="rgba(118, 129, 136, 1)"></use><use xlink:href="#SvgjsG5875" transform="translate(121.5, 40.5) scale(1.5)" fill="rgba(118, 129, 136, 1)"></use><use xlink:href="#SvgjsG5874" transform="translate(121.5, 81) scale(1.5)" fill="rgba(118, 129, 136, 1)"></use><use xlink:href="#SvgjsG5876" transform="translate(121.5, 121.5) scale(1.5)" fill="rgba(118, 129, 136, 1)"></use><use xlink:href="#SvgjsG5869" transform="translate(121.5, 162) scale(1.5)" fill="rgba(118, 129, 136, 1)"></use><use xlink:href="#SvgjsG5871" transform="translate(121.5, 202.5) scale(1.5)" fill="rgba(118, 129, 136, 1)"></use><use xlink:href="#SvgjsG5875" transform="translate(121.5, 243) scale(1.5)" fill="rgba(118, 129, 136, 1)"></use><use xlink:href="#SvgjsG5876" transform="translate(121.5, 283.5) scale(1.5)" fill="rgba(118, 129, 136, 1)"></use><use xlink:href="#SvgjsG5875" transform="translate(121.5, 324) scale(1.5)" fill="rgba(118, 129, 136, 1)"></use><use xlink:href="#SvgjsG5870" transform="translate(121.5, 364.5) scale(1.5)" fill="rgba(118, 129, 136, 1)"></use><use xlink:href="#SvgjsG5870" transform="translate(162, 0) scale(1.5)" fill="rgba(118, 129, 136, 1)"></use><use xlink:href="#SvgjsG5872" transform="translate(162, 40.5) scale(1.5)" fill="rgba(118, 129, 136, 1)"></use><use xlink:href="#SvgjsG5874" transform="translate(162, 81) scale(1.5)" fill="rgba(118, 129, 136, 1)"></use><use xlink:href="#SvgjsG5875" transform="translate(162, 121.5) scale(1.5)" fill="rgba(118, 129, 136, 1)"></use><use xlink:href="#SvgjsG5869" transform="translate(162, 162) scale(1.5)" fill="rgba(118, 129, 136, 1)"></use><use xlink:href="#SvgjsG5875" transform="translate(162, 202.5) scale(1.5)" fill="rgba(118, 129, 136, 1)"></use><use xlink:href="#SvgjsG5872" transform="translate(162, 243) scale(1.5)" fill="rgba(118, 129, 136, 1)"></use><use xlink:href="#SvgjsG5871" transform="translate(162, 283.5) scale(1.5)" fill="rgba(118, 129, 136, 1)"></use><use xlink:href="#SvgjsG5874" transform="translate(162, 324) scale(1.5)" fill="rgba(118, 129, 136, 1)"></use><use xlink:href="#SvgjsG5872" transform="translate(162, 364.5) scale(1.5)" fill="rgba(118, 129, 136, 1)"></use><use xlink:href="#SvgjsG5869" transform="translate(202.5, 0) scale(1.5)" fill="rgba(118, 129, 136, 1)"></use><use xlink:href="#SvgjsG5875" transform="translate(202.5, 40.5) scale(1.5)" fill="rgba(118, 129, 136, 1)"></use><use xlink:href="#SvgjsG5874" transform="translate(202.5, 81) scale(1.5)" fill="rgba(118, 129, 136, 1)"></use><use xlink:href="#SvgjsG5870" transform="translate(202.5, 121.5) scale(1.5)" fill="rgba(118, 129, 136, 1)"></use><use xlink:href="#SvgjsG5874" transform="translate(202.5, 162) scale(1.5)" fill="rgba(118, 129, 136, 1)"></use><use xlink:href="#SvgjsG5874" transform="translate(202.5, 202.5) scale(1.5)" fill="rgba(118, 129, 136, 1)"></use><use xlink:href="#SvgjsG5876" transform="translate(202.5, 243) scale(1.5)" fill="rgba(118, 129, 136, 1)"></use><use xlink:href="#SvgjsG5870" transform="translate(202.5, 283.5) scale(1.5)" fill="rgba(118, 129, 136, 1)"></use><use xlink:href="#SvgjsG5871" transform="translate(202.5, 324) scale(1.5)" fill="rgba(118, 129, 136, 1)"></use><use xlink:href="#SvgjsG5875" transform="translate(202.5, 364.5) scale(1.5)" fill="rgba(118, 129, 136, 1)"></use><use xlink:href="#SvgjsG5873" transform="translate(243, 0) scale(1.5)" fill="rgba(118, 129, 136, 1)"></use><use xlink:href="#SvgjsG5874" transform="translate(243, 40.5) scale(1.5)" fill="rgba(118, 129, 136, 1)"></use><use xlink:href="#SvgjsG5872" transform="translate(243, 81) scale(1.5)" fill="rgba(118, 129, 136, 1)"></use><use xlink:href="#SvgjsG5875" transform="translate(243, 121.5) scale(1.5)" fill="rgba(118, 129, 136, 1)"></use><use xlink:href="#SvgjsG5874" transform="translate(243, 162) scale(1.5)" fill="rgba(118, 129, 136, 1)"></use><use xlink:href="#SvgjsG5869" transform="translate(243, 202.5) scale(1.5)" fill="rgba(118, 129, 136, 1)"></use><use xlink:href="#SvgjsG5876" transform="translate(243, 243) scale(1.5)" fill="rgba(118, 129, 136, 1)"></use><use xlink:href="#SvgjsG5874" transform="translate(243, 283.5) scale(1.5)" fill="rgba(118, 129, 136, 1)"></use><use xlink:href="#SvgjsG5875" transform="translate(243, 324) scale(1.5)" fill="rgba(118, 129, 136, 1)"></use><use xlink:href="#SvgjsG5872" transform="translate(243, 364.5) scale(1.5)" fill="rgba(118, 129, 136, 1)"></use><use xlink:href="#SvgjsG5869" transform="translate(283.5, 0) scale(1.5)" fill="rgba(118, 129, 136, 1)"></use><use xlink:href="#SvgjsG5871" transform="translate(283.5, 40.5) scale(1.5)" fill="rgba(118, 129, 136, 1)"></use><use xlink:href="#SvgjsG5869" transform="translate(283.5, 81) scale(1.5)" fill="rgba(118, 129, 136, 1)"></use><use xlink:href="#SvgjsG5869" transform="translate(283.5, 121.5) scale(1.5)" fill="rgba(118, 129, 136, 1)"></use><use xlink:href="#SvgjsG5871" transform="translate(283.5, 162) scale(1.5)" fill="rgba(118, 129, 136, 1)"></use><use xlink:href="#SvgjsG5874" transform="translate(283.5, 202.5) scale(1.5)" fill="rgba(118, 129, 136, 1)"></use><use xlink:href="#SvgjsG5873" transform="translate(283.5, 243) scale(1.5)" fill="rgba(118, 129, 136, 1)"></use><use xlink:href="#SvgjsG5876" transform="translate(283.5, 283.5) scale(1.5)" fill="rgba(118, 129, 136, 1)"></use><use xlink:href="#SvgjsG5872" transform="translate(283.5, 324) scale(1.5)" fill="rgba(118, 129, 136, 1)"></use><use xlink:href="#SvgjsG5875" transform="translate(283.5, 364.5) scale(1.5)" fill="rgba(118, 129, 136, 1)"></use><use xlink:href="#SvgjsG5873" transform="translate(324, 0) scale(1.5)" fill="rgba(118, 129, 136, 1)"></use><use xlink:href="#SvgjsG5871" transform="translate(324, 40.5) scale(1.5)" fill="rgba(118, 129, 136, 1)"></use><use xlink:href="#SvgjsG5876" transform="translate(324, 81) scale(1.5)" fill="rgba(118, 129, 136, 1)"></use><use xlink:href="#SvgjsG5875" transform="translate(324, 121.5) scale(1.5)" fill="rgba(118, 129, 136, 1)"></use><use xlink:href="#SvgjsG5874" transform="translate(324, 162) scale(1.5)" fill="rgba(118, 129, 136, 1)"></use><use xlink:href="#SvgjsG5873" transform="translate(324, 202.5) scale(1.5)" fill="rgba(118, 129, 136, 1)"></use><use xlink:href="#SvgjsG5875" transform="translate(324, 243) scale(1.5)" fill="rgba(118, 129, 136, 1)"></use><use xlink:href="#SvgjsG5875" transform="translate(324, 283.5) scale(1.5)" fill="rgba(118, 129, 136, 1)"></use><use xlink:href="#SvgjsG5871" transform="translate(324, 324) scale(1.5)" fill="rgba(118, 129, 136, 1)"></use><use xlink:href="#SvgjsG5869" transform="translate(324, 364.5) scale(1.5)" fill="rgba(118, 129, 136, 1)"></use><use xlink:href="#SvgjsG5875" transform="translate(364.5, 0) scale(1.5)" fill="rgba(118, 129, 136, 1)"></use><use xlink:href="#SvgjsG5875" transform="translate(364.5, 40.5) scale(1.5)" fill="rgba(118, 129, 136, 1)"></use><use xlink:href="#SvgjsG5873" transform="translate(364.5, 81) scale(1.5)" fill="rgba(118, 129, 136, 1)"></use><use xlink:href="#SvgjsG5875" transform="translate(364.5, 121.5) scale(1.5)" fill="rgba(118, 129, 136, 1)"></use><use xlink:href="#SvgjsG5872" transform="translate(364.5, 162) scale(1.5)" fill="rgba(118, 129, 136, 1)"></use><use xlink:href="#SvgjsG5872" transform="translate(364.5, 202.5) scale(1.5)" fill="rgba(118, 129, 136, 1)"></use><use xlink:href="#SvgjsG5875" transform="translate(364.5, 243) scale(1.5)" fill="rgba(118, 129, 136, 1)"></use><use xlink:href="#SvgjsG5873" transform="translate(364.5, 283.5) scale(1.5)" fill="rgba(118, 129, 136, 1)"></use><use xlink:href="#SvgjsG5873" transform="translate(364.5, 324) scale(1.5)" fill="rgba(118, 129, 136, 1)"></use><use xlink:href="#SvgjsG5874" transform="translate(364.5, 364.5) scale(1.5)" fill="rgba(118, 129, 136, 1)"></use></g></defs></svg>